<?xml version="1.0" encoding="utf-8"?>
<!-- Generator: Adobe Illustrator 26.1.0, SVG Export Plug-In . SVG Version: 6.00 Build 0)  -->
<svg version="1.1" id="Layer_1" xmlns="http://www.w3.org/2000/svg" xmlns:xlink="http://www.w3.org/1999/xlink" x="0px" y="0px"
	 viewBox="0 0 1920 170.3" style="enable-background:new 0 0 1920 170.3;" xml:space="preserve">
<style type="text/css">
	.st0{fill:#22333B;}
	.st1{fill:#7A8589;}
</style>
<g>
	<path class="st0" d="M0.5,154.7v-40.8h0.2c25.3,13.2,52.1,20.4,74.9,20.4c19.5,0,29.5-5.3,29.5-14.6s-7.4-12.3-43.4-18.3
		C28.5,96,0,85.8,0,53.4C0,24.5,24.6,0,76,0c21.4,0.1,42.5,4.9,61.8,14v40.5h-0.2C118.5,43.2,93.7,36,72.8,36s-29.2,5.6-29.2,14.4
		c0,11.4,15.5,12.5,42.7,17.4c33.2,5.8,62.2,15.1,62.2,49.9c0,23.2-15.5,52.6-74.2,52.6C48.8,170.4,23.6,165.1,0.5,154.7z"/>
	<path class="st0" d="M174.8,0h44.5v170.2h-44.5V0z"/>
	<path class="st0" d="M305.9,39.4h-60.6L247,0h162.5l1.5,39.4h-60.6v130.8h-44.5V39.4z"/>
	<path class="st0" d="M437.2,0h145.5l1.7,37.6H481.5v27.2h81.8v35.8h-81.8v31.9h106.1l-1.5,37.6H437.2V0z"/>
	<path class="st0" d="M674.6,39.4H614L615.7,0h162.5l1.5,39.4h-60.6v130.8h-44.5V39.4z"/>
	<path class="st0" d="M806,0h95.1c44.5,0,66.1,20.9,66.1,59.8c0,27.8-11.9,46.2-34.8,54.5l41.8,55.9H923l-33.8-47.4h-38.7v47.4H806
		V0z M897.2,86.4c18.7,0,25.3-10.5,25.3-24.6s-6.6-24.1-25.3-24.1h-46.7v48.7L897.2,86.4z"/>
	<polygon class="st0" points="1093.6,0 1185.8,170.2 1093.6,128.1 	"/>
	<polygon class="st1" points="1093.6,0 1001.4,170.2 1093.6,128 	"/>
	<path class="st0" d="M1198.6,85.8c0-47.3,32.9-85.8,92.7-85.8c21.6-0.3,42.8,6.1,60.7,18.3v41.1h-0.2c-17.8-11.8-35-22-59.1-22
		c-32,0-51,20-51,48.2c0,27.6,18.1,47.3,50.7,47.3c24.1,0,42-8.6,59.4-21.5h0.2v41.5c-11.7,8.1-34.2,17.4-63.4,17.4
		C1227.1,170.2,1198.6,132.7,1198.6,85.8z"/>
	<path class="st0" d="M1575,0h145.5l1.7,37.6h-102.9v27.2h81.8v35.8h-81.8v31.9h106.1l-1.5,37.6H1575V0z"/>
	<path class="st0" d="M1751.7,0h95.1c44.5,0,66.2,20.9,66.2,59.8c0,27.8-11.9,46.2-34.8,54.5l41.9,55.9h-51.4l-33.8-47.4h-38.7v47.4
		h-44.5L1751.7,0z M1842.9,86.4c18.7,0,25.3-10.5,25.3-24.6s-6.6-24.1-25.3-24.1h-46.7v48.7L1842.9,86.4z"/>
	<path class="st0" d="M1422.7,170.2h-44.5V0h44.5V170.2z"/>
	<polygon class="st0" points="1425,84.2 1494.3,0 1545.2,0 1545.2,0.2 1477.5,81.7 1548.8,170 1548.8,170.2 1495.8,170.2 	"/>
</g>
</svg>
